<svg version="1.1" id="Layer_1" xmlns="http://www.w3.org/2000/svg" xmlns:xlink="http://www.w3.org/1999/xlink" x="0px" y="0px" viewBox="0 0 500 500" style="width: 166px;" xml:space="preserve" data-imageid="step-one-60" imageName="Step One" class="illustrations_image">
<style type="text/css">
	.st0_step-one-60{fill:#D1D3D4;}
	.st1_step-one-60{fill:#FFFFFF;}
	.st2_step-one-60{fill:#231F20;}
	.st3_step-one-60{fill:#68E1FD;}
</style>
<path id="Floor_step-one-60" class="st0_step-one-60" d="M455.9,339.7H56.8c-0.4,0-0.7-0.3-0.7-0.7c0-0.4,0.3-0.7,0.7-0.7c0,0,0,0,0,0h399.1&#10;&#9;c0.4,0,0.7,0.3,0.7,0.7S456.3,339.7,455.9,339.7C455.9,339.7,455.9,339.7,455.9,339.7z"/>
<g id="Steps_step-one-60">
	<rect x="109" y="295.4" class="st1_step-one-60" width="80.1" height="52.9"/>
	<path class="st2_step-one-60" d="M189.1,349H109c-0.4,0-0.7-0.3-0.7-0.7l0,0v-52.9c0-0.4,0.3-0.7,0.7-0.7h0h80.1c0.4,0,0.7,0.3,0.7,0.7l0,0&#10;&#9;&#9;v52.9C189.8,348.7,189.5,349,189.1,349C189.1,349,189.1,349,189.1,349z M109.7,347.6h78.7V296h-78.7L109.7,347.6z"/>
	<rect x="216.3" y="250" class="st1_step-one-60" width="80.1" height="98.2"/>
	<path class="st0_step-one-60" d="M296.4,349h-80.1c-0.4,0-0.7-0.3-0.7-0.7l0,0V250c0-0.4,0.3-0.7,0.7-0.7h80.1c0.4,0,0.7,0.3,0.7,0.7&#10;&#9;&#9;c0,0,0,0,0,0v98.2C297.2,348.6,296.9,349,296.4,349C296.5,349,296.5,349,296.4,349z M217,347.6h78.7v-96.8H217V347.6z"/>
	<rect x="323.6" y="215.1" class="st1_step-one-60" width="80.1" height="133.1"/>
	<path class="st0_step-one-60" d="M403.8,349h-80.1c-0.4,0-0.7-0.3-0.7-0.7v0V215.1c0-0.4,0.3-0.7,0.7-0.7h80.1c0.4,0,0.7,0.3,0.7,0.7&#10;&#9;&#9;c0,0,0,0,0,0v133.1C404.5,348.7,404.2,349,403.8,349C403.8,349,403.8,349,403.8,349z M324.3,347.6h78.7V215.8h-78.7V347.6z"/>
</g>
<g id="Plant_step-one-60">
	<path class="st2_step-one-60" d="M438.6,306.6c0.1-1.3-0.2-2.6-0.8-3.8c-0.6-0.8-1.2-1.6-1.7-2.4c-0.7-1.5-0.2-3.4-0.4-5.1&#10;&#9;&#9;c-0.2-1.4-0.8-2.7-1.8-3.8c-0.9-0.9-2-1.5-2.9-2.5c-1.4-1.5-1.8-3.7-2.6-5.6c-1.1-2.7-3.1-5-5.6-6.5c1.5,3-1.9,6.9-0.4,10&#10;&#9;&#9;c0.5,1,1.4,1.7,1.8,2.7c0.9,2.5-2,5.1-1.1,7.5c0.5,1.2,1.8,1.9,2.4,3.1c0.8,1.5,0.2,3.4,0.2,5.2c0.3,2.4,1.4,4.7,3.3,6.2&#10;&#9;&#9;c1.1,1,2.3,2,3.5,2.9c1.4,1.1,2,2.3,3.2,0.5C437.5,312.6,438.5,309.7,438.6,306.6z"/>
	<path class="st2_step-one-60" d="M440.1,308c-0.5-1.9-0.8-3.9,0-5.7c0.9-2,3-3.4,3.3-5.6c0.2-1.4-0.5-2.9-0.3-4.2s1.4-2.4,2.4-3.4&#10;&#9;&#9;c2.2-2.4,3.5-5.4,3.6-8.6c1.5,1.7,2.6,3.7,3.5,5.8c0.8,2.1,0.7,4.5-0.5,6.5c-0.4,0.4-0.7,0.9-0.9,1.4c-0.4,1.4,0.8,2.7,1.4,4&#10;&#9;&#9;c0.7,1.5,0.6,3.3-0.4,4.7c-1.2,1.5-3.6,2.1-4.2,4c-0.2,0.7-0.2,1.4-0.2,2.1c-0.3,2.5-2,4.7-4.5,5.4c-1.5,0.4-1.4-0.2-1.7-1.5&#10;&#9;&#9;C441.2,311.3,440.5,309.7,440.1,308z"/>
	<path class="st2_step-one-60" d="M435.5,294.6c-1-3.6-1.5-7.4-2.5-10.9c-0.9-2.8-2.1-5.5-3.4-8.1l4.5,1.9c1.4,0.6,3,1.3,3.6,2.7&#10;&#9;&#9;c1.2,2.4-0.9,5.5,0.3,8c0.5,0.8,1.1,1.5,1.8,2.2c1.3,1.9,1.1,4.4,0.4,6.5c-0.3,0.9-1.7,5.7-2.9,4.4c-0.5-0.5-0.5-2.5-0.7-3.2&#10;&#9;&#9;C436.2,296.8,435.8,295.7,435.5,294.6z"/>
	<path class="st2_step-one-60" d="M437.6,342.4c-0.9-5.9-3.7-26.6-3.7-26.8l1.4-0.2c0,0.2,2.8,20.9,3.7,26.8L437.6,342.4z"/>
	<path class="st2_step-one-60" d="M439.3,347.9h-1.4c0-7,3-33.8,4.7-35.7l1,0.9C442.4,314.8,439.3,339.4,439.3,347.9z"/>
	<path class="st2_step-one-60" d="M440.8,346.6l-1.4-0.1c0.7-15-2.5-46.6-2.5-46.9l1.4-0.1C438.2,299.8,441.5,331.5,440.8,346.6z"/>
	<path class="st1_step-one-60" d="M430.3,325.5h16.6l-1.2,18.9c0,3.1-2.5,5.6-5.5,5.8H437c-2.9,0-5.3-2.5-5.5-5.8L430.3,325.5z"/>
	<path class="st2_step-one-60" d="M440.2,350.9H437c-3.3,0-6-2.8-6.2-6.5l-1.2-18.9c0-0.2,0-0.4,0.2-0.5c0.1-0.1,0.3-0.2,0.5-0.2h16.6&#10;&#9;&#9;c0.2,0,0.4,0.1,0.5,0.2c0.1,0.1,0.2,0.3,0.2,0.5l-1.2,18.9C446.2,348,443.5,350.9,440.2,350.9z M431,326.2l1.1,18.1&#10;&#9;&#9;c0.2,2.9,2.3,5.1,4.8,5.1h3.2c2.5,0,4.6-2.2,4.8-5.1l1.1-18.1H431z"/>
</g>
<g id="Character_step-one-60">
	<path class="st2_step-one-60" d="M115.3,245.9c0,0,43.3-4.7,47.3,3.3c3.3,6.6,2.1,32.7,2.1,32.7l-14.1,2.2c0,0-2.1-22.5-4.1-24s-44,4-44,4&#10;&#9;&#9;l-17.9,78.7L66,340l11-91.3L115.3,245.9z"/>
	<path class="st2_step-one-60" d="M84.6,343.5h-0.1l-18.6-2.8c-0.4-0.1-0.6-0.4-0.6-0.8l11-91.3c0.1-0.3,0.4-0.6,0.7-0.6l38.2-2.8&#10;&#9;&#9;c4.5-0.5,43.9-4.5,48,3.7c3.4,6.7,2.2,32,2.1,33.1c0,0.3-0.3,0.6-0.6,0.7l-14.1,2.2c-0.2,0-0.4,0-0.5-0.1c-0.1-0.1-0.2-0.3-0.3-0.5&#10;&#9;&#9;c-1-10.8-2.7-22.5-3.8-23.5c-1.9-0.9-27.2,2-43,4.1L85.3,343C85.2,343.3,85,343.5,84.6,343.5z M66.8,339.4l17.3,2.6l17.7-78&#10;&#9;&#9;c0.1-0.3,0.3-0.5,0.6-0.5c9.9-1.3,42.5-5.5,44.5-3.9s3.7,17.7,4.3,23.8l12.8-2c0.2-3.8,0.9-26-2-31.8c-3.1-6.2-34.7-4.2-46.6-2.9&#10;&#9;&#9;l0,0l-37.7,2.7L66.8,339.4z M115.3,245.9L115.3,245.9z"/>
	<path class="st1_step-one-60" d="M150.6,284.2v10.7h30.1c0,0-7.2-8.3-16-12.9L150.6,284.2z"/>
	<path class="st2_step-one-60" d="M180.7,295.6h-30.1c-0.4,0-0.7-0.3-0.7-0.7v-10.7c0-0.3,0.2-0.6,0.6-0.7l14.1-2.2c0.1,0,0.3,0,0.4,0.1&#10;&#9;&#9;c8.9,4.6,15.9,12.7,16.2,13c0.3,0.3,0.2,0.7-0.1,1C181,295.5,180.8,295.5,180.7,295.6L180.7,295.6z M151.3,294.2h27.8&#10;&#9;&#9;c-2.3-2.4-8-8-14.6-11.4l-13.2,2.1V294.2z"/>
	<path class="st1_step-one-60" d="M66,340l-1,10.3c0,0,35.4,4.6,35.2,1.6s-15.5-9.1-15.5-9.1L66,340z"/>
	<path class="st2_step-one-60" d="M94.5,353.6c-9.1,0-25.5-2-29.6-2.6c-0.4-0.1-0.6-0.4-0.6-0.8l1-10.3c0-0.2,0.1-0.4,0.3-0.5&#10;&#9;&#9;c0.1-0.1,0.3-0.2,0.5-0.1l18.7,2.8c0.1,0,0.1,0,0.2,0c3.7,1.5,15.7,6.5,16,9.6c0,0.3-0.1,0.7-0.3,0.9&#10;&#9;&#9;C99.9,353.4,97.6,353.6,94.5,353.6z M65.8,349.7c15.2,1.9,31.6,3.3,33.7,2.1c-0.6-1.7-8.1-5.5-15-8.3l-17.8-2.7L65.8,349.7z"/>
	<path class="st1_step-one-60" d="M56,219.1c0,0-12.8,17.5-11.9,20.1c1.5,4.4,29.3,30.1,29.3,30.1s7.4,2.7,8-1S74.9,258,74.9,258l0.4-4.9&#10;&#9;&#9;c0,0-4.5,2.2-5.3,1.9s-12-16.6-12-16.6l10.2-13.6"/>
	<path class="st2_step-one-60" d="M78.2,271.1c-1.7-0.1-3.4-0.4-5.1-1c-0.1,0-0.2-0.1-0.2-0.1c-2.9-2.6-28-26-29.4-30.4&#10;&#9;&#9;c-0.9-2.8,8.9-16.6,12-20.8c0.2-0.3,0.6-0.4,1-0.2c0,0,0,0,0,0c0.3,0.2,0.4,0.7,0.2,1c0,0,0,0,0,0c-6,8.2-12.2,18-11.8,19.5&#10;&#9;&#9;c1.2,3.5,21.2,22.5,29,29.8c1.4,0.5,4.8,1.4,6.3,0.5c0.4-0.2,0.6-0.6,0.7-1c0.5-2.7-4.4-8-6.3-9.8c-0.2-0.1-0.2-0.4-0.2-0.6&#10;&#9;&#9;l0.3-3.7c-1.9,0.9-4,1.7-4.7,1.5c-0.3-0.1-1.1-0.3-12.3-16.9c-0.2-0.2-0.2-0.6,0-0.8l10.2-13.6c0.2-0.3,0.6-0.4,1-0.2c0,0,0,0,0,0&#10;&#9;&#9;c0.3,0.2,0.4,0.7,0.2,1c0,0,0,0,0,0L59,238.4c4,5.9,10.2,14.8,11.3,16c1.6-0.5,3.2-1.1,4.7-1.9c0.3-0.2,0.8,0,0.9,0.3&#10;&#9;&#9;c0.1,0.1,0.1,0.3,0.1,0.4l-0.4,4.6c1.4,1.4,7.2,7.2,6.5,10.8c-0.1,0.8-0.6,1.5-1.4,1.9C80,270.9,79.1,271.1,78.2,271.1z"/>
	<path class="st1_step-one-60" d="M134.8,195.9l10.9,5.6l2.6-27.2c0,0-2.9-2.8-3-4.8c-0.2-4.9,3-4.3,3-4.3s-0.1-9.3,1.1-9.6&#10;&#9;&#9;c2.4-0.6,2.4,4.6,2.4,10c0,0,5.6-1.1,5.4,1.5s-3.1,6.5-3.1,6.5s4.3,43.5-1.2,42.4s-23.6-8.8-23.6-8.8"/>
	<path class="st2_step-one-60" d="M153,216.6c-0.1,0-0.2,0-0.3,0c-5.5-1.1-23-8.5-23.7-8.8c-0.4-0.1-0.5-0.5-0.4-0.9c0,0,0,0,0,0&#10;&#9;&#9;c0.2-0.4,0.6-0.5,0.9-0.4c0.2,0.1,18.1,7.7,23.4,8.8c0.1,0,0.1,0,0.3-0.1c2.8-2.5,1.5-26.9,0.1-41.6c0-0.2,0-0.3,0.1-0.5&#10;&#9;&#9;c0,0,2.7-3.8,2.9-6.2c0-0.2,0-0.4-0.2-0.5c-0.7-0.6-3-0.5-4.4-0.2c-0.2,0-0.4,0-0.6-0.1c-0.2-0.1-0.3-0.3-0.2-0.6&#10;&#9;&#9;c0.1-2.5,0.2-8.3-1-9.2c-0.1-0.1-0.2-0.1-0.3-0.1c-0.5,0.8-0.8,5.2-0.8,9c0,0.4-0.3,0.7-0.7,0.7c0,0-0.1,0-0.1,0&#10;&#9;&#9;c-0.5-0.1-0.9,0.1-1.3,0.4c-0.6,0.5-0.9,1.6-0.9,3.2s2,3.6,2.8,4.4c0.2,0.1,0.2,0.4,0.2,0.6l-2.6,27.2c0,0.4-0.4,0.7-0.8,0.6&#10;&#9;&#9;c-0.1,0-0.2,0-0.2-0.1l-10.9-5.6c-0.3-0.2-0.5-0.6-0.3-0.9c0.2-0.3,0.6-0.5,0.9-0.3c0,0,0,0,0,0l9.9,5.1l2.4-25.9&#10;&#9;&#9;c-0.8-0.8-2.9-3.1-3-5.1s0.4-3.5,1.4-4.3c0.5-0.4,1-0.6,1.6-0.7c0-9.1,1.2-9.5,1.7-9.6c0.6-0.2,1.2-0.1,1.7,0.3&#10;&#9;&#9;c1.4,1.1,1.7,4.3,1.6,9.5c1.3-0.2,3.6-0.3,4.7,0.7c0.5,0.4,0.7,1,0.6,1.7c-0.2,2.4-2.4,5.8-3,6.7c0.5,5,3.6,38.7-0.6,42.5&#10;&#9;&#9;C153.9,216.5,153.4,216.7,153,216.6z"/>
	<path class="st3_step-one-60 targetColor" d="M75.8,193.1c-11.8,7.6-23.6,28.2-23.6,28.2l16.8,9.2l10.2-13.6l-3.4,33.7l48.4-5.3l-6-40.1l13.4,5.1l5.3-15.4&#10;&#9;&#9;c0,0-12.1-6.7-23.3-6.7S87.5,185.4,75.8,193.1z" style="fill: rgb(134, 253, 104);"/>
	<path class="st1_step-one-60" d="M110.7,158.8c0.8-2.1,0.7-4.4-0.1-6.5c-1-2-2.6-3.5-4.7-4.3c-2-0.8-4.3-1-6.4-0.8c-3.6,0.3-6.9,1.7-9.5,4.1&#10;&#9;&#9;c-2.6,2.5-3.9,6-3.5,9.6c-1.6-0.3-3.2,0.3-4.2,1.5c-3.1,3.1-2.8,8.4-0.8,12.2c1.2,2.5,3.5,4.4,6.2,5c5.7,1.6,12.6-0.1,15.8-5.2&#10;&#9;&#9;c1.7-2.7,1.2-6.2,2.8-8.8C107.6,163.2,109.7,161.7,110.7,158.8z"/>
	<path class="st2_step-one-60" d="M91.9,180.9c-1.5,0-3-0.2-4.5-0.6c-1.4-0.4-2.6-1-3.8-1.8c-1.2-1-2.2-2.2-2.8-3.6c-2-3.8-2.6-9.5,0.9-13.1&#10;&#9;&#9;c1-1.1,2.4-1.7,3.9-1.8l0,0c-0.1-3.5,1.3-6.9,3.8-9.3c2.7-2.5,6.2-4.1,9.9-4.3c2.3-0.3,4.6,0,6.8,0.9c2.2,0.9,4,2.5,5.1,4.7&#10;&#9;&#9;c0.9,2.2,1,4.7,0.1,7c-0.6,1.6-1.6,3.2-2.8,4.4c-0.7,0.8-1.3,1.6-1.8,2.5c-0.6,1.3-1,2.6-1.2,4c-0.2,1.7-0.7,3.3-1.6,4.8&#10;&#9;&#9;C101.3,179.1,96.5,180.9,91.9,180.9z M85.6,161.5c-1.1,0.1-2.1,0.6-2.9,1.4c-3,3-2.4,8.1-0.7,11.4c0.6,1.2,1.4,2.3,2.5,3.1&#10;&#9;&#9;c1,0.7,2.1,1.3,3.3,1.6c5.8,1.6,12.2-0.4,15-4.9c0.7-1.4,1.2-2.8,1.4-4.4c0.2-1.5,0.7-3,1.4-4.4c0.6-0.9,1.3-1.8,2-2.7&#10;&#9;&#9;c1.1-1.2,1.9-2.5,2.5-4l0,0c0.7-1.9,0.7-4.1-0.1-6c-0.9-1.8-2.4-3.3-4.3-4c-1.9-0.7-4-1-6.1-0.8c-3.4,0.2-6.6,1.6-9.1,3.9&#10;&#9;&#9;c-2.5,2.3-3.7,5.6-3.3,9c0,0.4-0.2,0.7-0.6,0.8c-0.1,0-0.2,0-0.3,0C86,161.6,85.8,161.5,85.6,161.5z"/>
	<path class="st1_step-one-60" d="M103.4,184.3l1.6,7.9c0,0-0.3,3.8-5.8,3.7s-7.1-3.6-7.1-3.6l-2.5-14.9c0,0,2.8-3-0.1-11.2&#10;&#9;&#9;c0,0,8.7,0.8,16.3-1.9c0,0,2.2,9.6,2.4,13.8S103.4,184.3,103.4,184.3z"/>
	<path class="st2_step-one-60" d="M99.4,196.6h-0.3c-5.9-0.2-7.7-3.9-7.7-4c0-0.1,0-0.1,0-0.2l-2.5-14.9c0-0.2,0-0.4,0.2-0.6&#10;&#9;&#9;c0,0,2.5-2.8-0.3-10.5c-0.1-0.2,0-0.5,0.1-0.7c0.1-0.2,0.4-0.3,0.6-0.3c0.1,0,8.7,0.7,16.1-1.9c0.2-0.1,0.4-0.1,0.6,0.1&#10;&#9;&#9;c0.2,0.1,0.3,0.3,0.3,0.4c0.1,0.4,2.2,9.7,2.4,13.9c0.2,3.9-3.3,6-4.7,6.6l1.5,7.4c0,0.1,0,0.1,0,0.2&#10;&#9;&#9;C105.7,192.3,105.3,196.6,99.4,196.6z M92.7,192c0.2,0.5,1.8,3,6.5,3.1c4.4,0.1,5-2.4,5.1-2.9l-1.6-7.8c-0.1-0.3,0.1-0.7,0.4-0.8&#10;&#9;&#9;c0,0,4.6-1.9,4.3-5.5c-0.5-4.4-1.2-8.7-2.2-13c-4.8,1.4-9.8,2-14.8,1.8c2.1,6.6,0.5,9.7-0.1,10.6L92.7,192z"/>
	<path class="st1_step-one-60" d="M90.7,176.4c-0.9-1.5-2.6-2.4-4.3-2.1c-0.8,0.1-1.6,0.7-1.9,1.4c-0.5,1.2,0.1,2.7,0.8,3.7&#10;&#9;&#9;c0.7,0.9,1.7,1.6,2.8,1.8c1.1,0.2,2.3-0.1,3.2-0.8"/>
	<path class="st2_step-one-60" d="M88.7,181.9c-0.3,0-0.5,0-0.8-0.1c-1.3-0.2-2.5-0.9-3.3-2c-0.5-0.7-1.6-2.6-0.9-4.4c0.5-1,1.4-1.6,2.5-1.8&#10;&#9;&#9;c2-0.3,4.1,0.7,5.1,2.5c0.1,0.3,0,0.7-0.3,0.9c-0.3,0.2-0.8,0-0.9-0.3c0,0,0,0,0,0c-0.7-1.3-2.2-1.9-3.6-1.7&#10;&#9;&#9;c-0.6,0.1-1.2,0.4-1.5,1c-0.4,0.9,0.1,2.1,0.7,3c0.6,0.8,1.4,1.3,2.3,1.5c0.9,0.1,1.9-0.1,2.7-0.6c0.3-0.2,0.8-0.1,1,0.2&#10;&#9;&#9;c0.2,0.3,0.1,0.7-0.1,0.9C90.7,181.6,89.7,181.9,88.7,181.9z"/>
	<path class="st2_step-one-60" d="M99.7,177.1L99.7,177.1c-0.4,0-0.7-0.3-0.7-0.7c0-0.4,0.3-0.7,0.7-0.7l0,0c0.6,0,1.2-0.1,1.7-0.4&#10;&#9;&#9;c-0.8-1.3-1.9-2.5-3.1-3.5c-0.3-0.2-0.4-0.6-0.2-1c0.2-0.3,0.6-0.4,1-0.2c0.1,0,0.1,0.1,0.2,0.2c4.2,3.8,3.6,4.8,3.4,5.1&#10;&#9;&#9;C102.1,177,100.2,177.1,99.7,177.1z M101.4,175.4L101.4,175.4z"/>
	<path class="st2_step-one-60" d="M103.4,184.3c0,0-4.1,0.8-6.3,0c0,0,2.4,4.4,7.2,4.8L103.4,184.3z"/>
	<path class="st2_step-one-60" d="M104.3,189.7L104.3,189.7c-5.1-0.4-7.7-5-7.8-5.2c-0.1-0.3-0.1-0.6,0.1-0.8c0.2-0.2,0.5-0.3,0.8-0.2&#10;&#9;&#9;c1.6,0.6,4.8,0.2,5.9,0c0.4-0.1,0.7,0.2,0.8,0.5c0,0,0,0,0,0l0.9,4.8c0.1,0.4-0.2,0.7-0.6,0.8C104.3,189.7,104.3,189.7,104.3,189.7&#10;&#9;&#9;L104.3,189.7z M98.7,185.2c1.2,1.5,2.9,2.5,4.7,3l-0.6-3.2C101.4,185.3,100.1,185.3,98.7,185.2z"/>
	
		<ellipse transform="matrix(0.998 -6.366144e-02 6.366144e-02 0.998 -10.5956 6.3887)" class="st2_step-one-60" cx="95" cy="169.5" rx="0.6" ry="1"/>
	
		<ellipse transform="matrix(0.998 -6.366144e-02 6.366144e-02 0.998 -10.5484 6.8284)" class="st2_step-one-60" cx="101.9" cy="168.9" rx="0.6" ry="1"/>
	<path class="st2_step-one-60" d="M99,180.7c-1.7,0-3.4-0.8-4.6-2c-0.3-0.3-0.2-0.7,0.1-1c0.3-0.3,0.7-0.2,1,0.1l0,0c0.1,0.1,3.1,3.4,7.4-0.1&#10;&#9;&#9;c0.3-0.3,0.7-0.2,1,0.1c0,0,0,0,0,0c0.2,0.3,0.2,0.8-0.1,1c0,0,0,0,0,0C102.5,180,100.8,180.7,99,180.7z"/>
	<path class="st2_step-one-60" d="M79.2,217.5L79.2,217.5c-0.4,0-0.7-0.3-0.7-0.7c0,0,0,0,0,0l0.7-13.3c0-0.4,0.4-0.7,0.7-0.7&#10;&#9;&#9;c0.4,0,0.7,0.4,0.7,0.7l-0.7,13.3C79.9,217.2,79.6,217.5,79.2,217.5C79.2,217.5,79.2,217.5,79.2,217.5z"/>
	<path class="st1_step-one-60" d="M148.2,165.1c0,0,4.1-0.4,4.2,0.9c0.1,2.7-3,2-3,2s2,1.6,0.9,3"/>
	<path class="st2_step-one-60" d="M150.3,171.6c-0.2,0-0.3-0.1-0.4-0.2c-0.3-0.2-0.4-0.7-0.1-1c0,0,0,0,0,0c0.1-0.1,0.2-0.3,0.2-0.5&#10;&#9;&#9;c-0.2-0.6-0.5-1.1-1-1.4c-0.3-0.2-0.3-0.6-0.2-0.9c0.1-0.3,0.5-0.4,0.8-0.4c0.6,0.1,1.2,0,1.8-0.3c0.3-0.3,0.4-0.7,0.4-1.1&#10;&#9;&#9;c-1.1-0.3-2.3-0.3-3.4-0.2c-0.4,0-0.7-0.2-0.8-0.6c0-0.4,0.2-0.7,0.6-0.8c0.8-0.1,3.5-0.3,4.5,0.6c0.3,0.2,0.4,0.6,0.4,0.9&#10;&#9;&#9;c0.1,0.8-0.3,1.6-0.9,2.2c-0.4,0.3-0.8,0.5-1.3,0.6c0.2,0.3,0.3,0.7,0.4,1.1c0.1,0.6-0.1,1.1-0.5,1.6&#10;&#9;&#9;C150.7,171.5,150.5,171.6,150.3,171.6z"/>
</g>
<g id="No_1_step-one-60">
	<path class="st2_step-one-60" d="M147.1,312l-9.3,4.5v-6.8l9.8-4.7h7.5v30.8h-8L147.1,312z"/>
</g>
</svg>